<svg width="2490" height="2490" viewBox="0 0 2490 2490" fill="none" xmlns="http://www.w3.org/2000/svg">
<mask id="mask0_10136_3259" style="mask-type:alpha" maskUnits="userSpaceOnUse" x="0" y="0" width="2490" height="2490">
<path fill-rule="evenodd" clip-rule="evenodd" d="M1245 2490C2241 2490 2490 2241 2490 1245C2490 249 2241 0 1245 0C249 0 0 249 0 1245C0 2241 249 2490 1245 2490Z" fill="black"/>
</mask>
<g mask="url(#mask0_10136_3259)">
<g filter="url(#filter0_ii_10136_3259)">
<path fill-rule="evenodd" clip-rule="evenodd" d="M1245 2490C2241 2490 2490 2241 2490 1245C2490 249 2241 0 1245 0C249 0 0 249 0 1245C0 2241 249 2490 1245 2490Z" fill="url(#paint0_linear_10136_3259)"/>
</g>
<g filter="url(#filter1_ddii_10136_3259)">
<path d="M1119.56 470.453C1119.56 458.408 1108.72 449.259 1096.85 451.275L794.322 502.643C784.969 504.23 778.125 512.334 778.125 521.821V1994.77C778.125 2005.51 786.834 2014.22 797.578 2014.22H1100.1C1110.85 2014.22 1119.56 2005.51 1119.56 1994.77V1443.39C1119.56 1275.41 1208.63 1171.36 1282.86 1171.36C1349.66 1171.36 1368.96 1238.26 1368.96 1339.33V1994.77C1368.96 2005.51 1377.66 2014.22 1388.41 2014.22H1692.42C1703.17 2014.22 1711.88 2005.51 1711.88 1994.77V1290.28C1711.88 1061.36 1625.78 914.188 1401.62 914.188C1311.65 914.188 1223.84 935.85 1153.89 983.799C1140 993.322 1119.56 983.945 1119.56 967.093V470.453Z" fill="white"/>
</g>
</g>
<defs>
<filter id="filter0_ii_10136_3259" x="-24.9" y="-24.9" width="2539.8" height="2539.8" filterUnits="userSpaceOnUse" color-interpolation-filters="sRGB">
<feFlood flood-opacity="0" result="BackgroundImageFix"/>
<feBlend mode="normal" in="SourceGraphic" in2="BackgroundImageFix" result="shape"/>
<feColorMatrix in="SourceAlpha" type="matrix" values="0 0 0 0 0 0 0 0 0 0 0 0 0 0 0 0 0 0 127 0" result="hardAlpha"/>
<feOffset dx="24.9" dy="24.9"/>
<feGaussianBlur stdDeviation="16.6"/>
<feComposite in2="hardAlpha" operator="arithmetic" k2="-1" k3="1"/>
<feColorMatrix type="matrix" values="0 0 0 0 1 0 0 0 0 1 0 0 0 0 1 0 0 0 0.2 0"/>
<feBlend mode="normal" in2="shape" result="effect1_innerShadow_10136_3259"/>
<feColorMatrix in="SourceAlpha" type="matrix" values="0 0 0 0 0 0 0 0 0 0 0 0 0 0 0 0 0 0 127 0" result="hardAlpha"/>
<feOffset dx="-24.9" dy="-24.9"/>
<feGaussianBlur stdDeviation="16.6"/>
<feComposite in2="hardAlpha" operator="arithmetic" k2="-1" k3="1"/>
<feColorMatrix type="matrix" values="0 0 0 0 0 0 0 0 0 0 0 0 0 0 0 0 0 0 0.05 0"/>
<feBlend mode="normal" in2="effect1_innerShadow_10136_3259" result="effect2_innerShadow_10136_3259"/>
</filter>
<filter id="filter1_ddii_10136_3259" x="711.725" y="434.395" width="1066.55" height="1696.03" filterUnits="userSpaceOnUse" color-interpolation-filters="sRGB">
<feFlood flood-opacity="0" result="BackgroundImageFix"/>
<feColorMatrix in="SourceAlpha" type="matrix" values="0 0 0 0 0 0 0 0 0 0 0 0 0 0 0 0 0 0 127 0" result="hardAlpha"/>
<feOffset dy="49.8"/>
<feGaussianBlur stdDeviation="33.2"/>
<feColorMatrix type="matrix" values="0 0 0 0 0 0 0 0 0 0 0 0 0 0 0 0 0 0 0.25 0"/>
<feBlend mode="normal" in2="BackgroundImageFix" result="effect1_dropShadow_10136_3259"/>
<feColorMatrix in="SourceAlpha" type="matrix" values="0 0 0 0 0 0 0 0 0 0 0 0 0 0 0 0 0 0 127 0" result="hardAlpha"/>
<feOffset dy="16.6"/>
<feGaussianBlur stdDeviation="16.6"/>
<feColorMatrix type="matrix" values="0 0 0 0 0 0 0 0 0 0 0 0 0 0 0 0 0 0 0.125 0"/>
<feBlend mode="normal" in2="effect1_dropShadow_10136_3259" result="effect2_dropShadow_10136_3259"/>
<feBlend mode="normal" in="SourceGraphic" in2="effect2_dropShadow_10136_3259" result="shape"/>
<feColorMatrix in="SourceAlpha" type="matrix" values="0 0 0 0 0 0 0 0 0 0 0 0 0 0 0 0 0 0 127 0" result="hardAlpha"/>
<feOffset dy="-8.3"/>
<feGaussianBlur stdDeviation="12.45"/>
<feComposite in2="hardAlpha" operator="arithmetic" k2="-1" k3="1"/>
<feColorMatrix type="matrix" values="0 0 0 0 0 0 0 0 0 0 0 0 0 0 0 0 0 0 0.125 0"/>
<feBlend mode="normal" in2="shape" result="effect3_innerShadow_10136_3259"/>
<feColorMatrix in="SourceAlpha" type="matrix" values="0 0 0 0 0 0 0 0 0 0 0 0 0 0 0 0 0 0 127 0" result="hardAlpha"/>
<feOffset dy="-8.3"/>
<feGaussianBlur stdDeviation="12.45"/>
<feComposite in2="hardAlpha" operator="arithmetic" k2="-1" k3="1"/>
<feColorMatrix type="matrix" values="0 0 0 0 0.92549 0 0 0 0 0.215686 0 0 0 0 0.313726 0 0 0 0.5 0"/>
<feBlend mode="normal" in2="effect3_innerShadow_10136_3259" result="effect4_innerShadow_10136_3259"/>
</filter>
<linearGradient id="paint0_linear_10136_3259" x1="1245" y1="0" x2="1245" y2="2490" gradientUnits="userSpaceOnUse">
<stop stop-color="#082888"/>
<stop offset="1" stop-color="#EC2028"/>
</linearGradient>
</defs>
</svg>